<svg width="45" height="45" fill="none" xmlns="http://www.w3.org/2000/svg"><path d="M19.565 10.85l-.51 2.928a.527.527 0 00.764.558l2.634-1.377 2.627 1.39a.527.527 0 00.766-.554l-.495-2.93 2.133-2.07a.528.528 0 00-.29-.9l-2.94-.434-1.308-2.668a.527.527 0 00-.473-.295.527.527 0 00-.473.293l-1.322 2.661-2.942.42a.527.527 0 00-.294.899l2.123 2.08zm1.537-2.393a.527.527 0 00.398-.288l.97-1.952.96 1.957a.527.527 0 00.396.29l2.157.318-1.565 1.519a.529.529 0 00-.153.466l.363 2.15-1.927-1.02a.528.528 0 00-.49 0l-1.933 1.01.374-2.149a.527.527 0 00-.151-.467l-1.558-1.526 2.159-.308zm12.164 4.327l-.448 2.572a.527.527 0 00.764.557l2.314-1.209 2.308 1.22a.528.528 0 00.766-.553l-.435-2.574 1.874-1.818a.528.528 0 00-.29-.9l-2.583-.382-1.15-2.344a.528.528 0 00-.472-.295.528.528 0 00-.473.293L34.28 9.689l-2.585.369a.527.527 0 00-.294.898l1.865 1.828zm1.437-2.09a.526.526 0 00.398-.288l.81-1.63.8 1.634a.527.527 0 00.397.29l1.8.266-1.306 1.266a.527.527 0 00-.153.467l.303 1.794-1.608-.85a.527.527 0 00-.49-.002l-1.613.843.312-1.793a.528.528 0 00-.15-.467l-1.3-1.273 1.8-.257zm-28.321 2.09l-.447 2.572a.528.528 0 00.764.557l2.313-1.209 2.308 1.22a.528.528 0 00.767-.553l-.435-2.574 1.874-1.818a.528.528 0 00-.29-.9l-2.584-.382-1.15-2.344a.527.527 0 00-.471-.295h-.002a.527.527 0 00-.472.293L7.396 9.689l-2.584.369a.527.527 0 00-.295.898l1.865 1.828zm1.438-2.09a.527.527 0 00.398-.288l.809-1.63.801 1.634a.527.527 0 00.397.29l1.8.266-1.306 1.266a.53.53 0 00-.153.467l.303 1.794-1.608-.85a.528.528 0 00-.491-.002l-1.613.843.312-1.793a.527.527 0 00-.15-.467l-1.3-1.273 1.8-.257zm14.68 5.754a4.233 4.233 0 00-4.228 4.229v2.467a4.228 4.228 0 108.456 0v-2.467a4.233 4.233 0 00-4.228-4.229zm3.174 6.696a3.173 3.173 0 11-6.348 0v-2.467a3.174 3.174 0 116.348 0v2.467zm9.948-4.604a3.896 3.896 0 00-3.892 3.891v2.243a3.892 3.892 0 107.784 0v-2.243a3.896 3.896 0 00-3.892-3.892zm2.837 6.134a2.837 2.837 0 11-5.674 0v-2.243a2.838 2.838 0 015.674 0v2.243z" fill="#000" fill-opacity=".8"/><path d="M40.108 29.354H38.69a.48.48 0 01-.48-.48.527.527 0 00-1.023-.177l-.564 1.57a1.056 1.056 0 01-1.992-.012l-.54-1.564a.527.527 0 00-.87-.201l-.013.012a.528.528 0 00-.155.373.48.48 0 01-.479.48h-1.438a4.5 4.5 0 00-.68.051 4.821 4.821 0 00-3.021-1.061h-1.56a.58.58 0 01-.58-.58.527.527 0 00-1.024-.178l-.62 1.728a1.215 1.215 0 01-2.29-.015l-.594-1.721a.526.526 0 00-.872-.2l-.014.013a.527.527 0 00-.154.373.58.58 0 01-.58.58h-1.582a4.82 4.82 0 00-3.021 1.061 4.494 4.494 0 00-.68-.052h-1.418a.48.48 0 01-.479-.479.527.527 0 00-1.024-.178l-.563 1.57a1.057 1.057 0 01-1.992-.012l-.54-1.564a.527.527 0 00-.871-.201l-.013.012a.527.527 0 00-.154.373.48.48 0 01-.48.48H4.893A4.458 4.458 0 00.44 33.806v6.168a.527.527 0 00.528.527h43.066a.527.527 0 00.527-.527v-6.168a4.458 4.458 0 00-4.452-4.453zM12.72 33.19v6.258H1.494v-5.641a3.402 3.402 0 013.398-3.399H6.33c.322.001.635-.1.895-.288l.165.479a2.11 2.11 0 003.982.025l.181-.503c.246.178.54.277.844.287H13.6a4.818 4.818 0 00-.88 2.782zm18.505 6.258h-17.45V33.19a3.795 3.795 0 013.79-3.79h1.582c.367 0 .723-.124 1.011-.351l.205.595a2.27 2.27 0 004.28.027l.224-.62a1.626 1.626 0 00.985.348h1.582a3.795 3.795 0 013.791 3.79v6.259zm12.28 0H32.28V33.19c0-.996-.307-1.968-.881-2.781h1.175c.321 0 .634-.101.895-.289l.165.479a2.11 2.11 0 003.982.025l.18-.503c.247.178.54.277.844.287h1.468a3.402 3.402 0 013.398 3.399v5.64z" fill="#000" fill-opacity=".8"/><path d="M5.486 22.431v2.243a3.892 3.892 0 107.784 0v-2.243a3.892 3.892 0 00-7.784 0zm6.73 0v2.243a2.837 2.837 0 11-5.675 0v-2.243a2.837 2.837 0 015.674 0z" fill="#000" fill-opacity=".8"/></svg>