<svg width="118" height="43" fill="none" xmlns="http://www.w3.org/2000/svg"><path stroke="#fff" stroke-opacity=".5" d="M71.5.5h46v42h-46z"/><path d="M3.54 17.86c0 .58.2 1.08.6 1.5.42.42 1.02.86 1.8 1.32.76.44 1.32.79 1.68 1.05.38.24.72.59 1.02 1.05.3.44.45.98.45 1.62 0 .68-.17 1.32-.51 1.92-.34.6-.85 1.09-1.53 1.47-.68.36-1.49.54-2.43.54-1.1 0-2.14-.27-3.12-.81-.12-.12-.18-.24-.18-.36l-.06-2.97c0-.06.05-.09.15-.09.12-.02.19-.01.21.03.32 1 .85 1.85 1.59 2.55.74.7 1.49 1.05 2.25 1.05.42 0 .75-.13.99-.39.26-.26.39-.64.39-1.14 0-.74-.21-1.32-.63-1.74-.42-.44-1.04-.89-1.86-1.35-.7-.38-1.23-.69-1.59-.93-.36-.24-.68-.58-.96-1.02-.28-.44-.42-.98-.42-1.62 0-1.18.42-2.04 1.26-2.58.84-.56 1.87-.84 3.09-.84.46 0 .87.03 1.23.09.38.06.8.18 1.26.36.18.06.27.17.27.33 0 .5-.01.89-.03 1.17l-.03 1.5c0 .06-.06.09-.18.09s-.18-.03-.18-.09c0-.38-.16-.79-.48-1.23-.32-.46-.74-.85-1.26-1.17-.5-.32-1.02-.48-1.56-.48-.82 0-1.23.39-1.23 1.17zm16.287 8.04c.08 0 .14.04.18.12.06.08.06.14 0 .18-.74.74-1.46 1.29-2.16 1.65-.7.34-1.44.51-2.22.51-.88 0-1.63-.21-2.25-.63-.62-.42-.93-1.13-.93-2.13v-6.66c0-.62-.11-1.05-.33-1.29-.22-.24-.62-.36-1.2-.36-.02 0-.05-.03-.09-.09a.566.566 0 010-.36c.02-.06.05-.09.09-.09 1.02-.04 1.84-.26 2.46-.66.64-.4 1.13-1.01 1.47-1.83.04-.08.12-.12.24-.12.14 0 .21.04.21.12v2.4c1.16-.02 2.46-.11 3.9-.27.04 0 .08.08.12.24.06.14.09.3.09.48 0 .2-.04.4-.12.6-.06.18-.13.26-.21.24-1.3-.28-2.56-.43-3.78-.45v7.11c0 .76.19 1.32.57 1.68.4.36.92.54 1.56.54.8 0 1.58-.3 2.34-.9l.06-.03zm15.329.15c.06 0 .11.05.15.15.06.1.06.16 0 .18l-4.14 2.01c-.04.02-.09.03-.15.03-.2 0-.38-.21-.54-.63-.14-.44-.22-1.03-.24-1.77-1.32 1.56-2.75 2.34-4.29 2.34-1.1 0-1.97-.34-2.61-1.02-.62-.7-.93-1.61-.93-2.73V20.2c0-1.3-.31-1.95-.93-1.95-.22 0-.47.07-.75.21h-.03c-.08 0-.14-.05-.18-.15-.04-.12-.03-.19.03-.21l4.02-1.92.15-.03c.1 0 .2.05.3.15.12.08.18.16.18.24v6.63c0 2.16.83 3.24 2.49 3.24.44 0 .88-.09 1.32-.27.46-.2.87-.47 1.23-.81V20.2c0-1.3-.31-1.95-.93-1.95-.22 0-.48.07-.78.21h-.03c-.06 0-.11-.05-.15-.15-.04-.12-.03-.19.03-.21l4.02-1.92c.04-.02.09-.03.15-.03.1 0 .2.05.3.15.12.08.18.16.18.24v7.98c0 .68.06 1.16.18 1.44.14.28.36.42.66.42.28 0 .69-.11 1.23-.33h.06zm15.266 0c.06 0 .11.05.15.15.06.1.07.16.03.18l-4.14 2.01-.15.03c-.18 0-.35-.19-.51-.57-.14-.38-.23-.9-.27-1.56-1.48 1.4-2.99 2.1-4.53 2.1-.88 0-1.68-.23-2.4-.69-.7-.46-1.26-1.13-1.68-2.01-.42-.9-.63-1.95-.63-3.15 0-1.52.35-2.76 1.05-3.72.72-.98 1.6-1.69 2.64-2.13 1.06-.44 2.12-.66 3.18-.66.74 0 1.52.12 2.34.36v-6.06c0-.7-.07-1.2-.21-1.5-.12-.3-.34-.45-.66-.45-.26 0-.63.11-1.11.33h-.03c-.08 0-.15-.05-.21-.15-.04-.12-.04-.19 0-.21l4.41-2.07.12-.03c.1 0 .21.05.33.15.12.08.18.16.18.24v17.88c0 .68.06 1.16.18 1.44.14.28.36.42.66.42.26 0 .67-.11 1.23-.33h.03zm-7.77.9c1 0 1.95-.42 2.85-1.26v-7.44c-.36-.5-.77-.86-1.23-1.08-.44-.24-.96-.36-1.56-.36-1.08 0-1.91.38-2.49 1.14-.56.74-.84 1.95-.84 3.63s.3 3 .9 3.96c.6.94 1.39 1.41 2.37 1.41zM51.795 28c-.06 0-.09-.06-.09-.18s.03-.18.09-.18c.62 0 1.04-.14 1.26-.42.22-.3.33-.85.33-1.65V20.2c0-.68-.07-1.17-.21-1.47-.14-.3-.37-.45-.69-.45-.26 0-.63.11-1.11.33h-.03c-.08 0-.14-.05-.18-.15-.04-.12-.03-.19.03-.21l4.53-2.1.09-.03c.1 0 .2.05.3.15.1.1.15.19.15.27v.66c-.04.8-.06 1.78-.06 2.94v5.43c0 .8.11 1.35.33 1.65.24.28.67.42 1.29.42.06 0 .09.06.09.18s-.03.18-.09.18c-.52 0-.93-.01-1.23-.03l-1.8-.03-1.77.03c-.3.02-.71.03-1.23.03zm2.88-14.85c-.58 0-1.03-.16-1.35-.48-.32-.32-.48-.77-.48-1.35 0-.52.16-.93.48-1.23.34-.32.79-.48 1.35-.48s.99.15 1.29.45c.3.3.45.72.45 1.26 0 .58-.15 1.03-.45 1.35-.3.32-.73.48-1.29.48zm10.94 15.24c-1.24 0-2.33-.28-3.27-.84a5.917 5.917 0 01-2.13-2.31c-.5-.98-.75-2.04-.75-3.18 0-1.3.33-2.4.99-3.3.66-.92 1.5-1.6 2.52-2.04 1.02-.46 2.07-.69 3.15-.69 1.24 0 2.32.29 3.24.87.92.58 1.62 1.35 2.1 2.31.5.94.75 1.95.75 3.03 0 1.2-.3 2.27-.9 3.21-.6.92-1.41 1.64-2.43 2.16-1 .52-2.09.78-3.27.78zm.9-.63c.78 0 1.37-.38 1.77-1.14.42-.78.63-1.89.63-3.33 0-1.4-.18-2.6-.54-3.6-.36-1-.83-1.75-1.41-2.25-.58-.52-1.2-.78-1.86-.78-1.6 0-2.4 1.43-2.4 4.29 0 1.34.17 2.53.51 3.57.34 1.02.8 1.82 1.38 2.4.58.56 1.22.84 1.92.84z" fill="#fff"/><path d="M86.204 16.42c.06 0 .09.06.09.18s-.03.18-.09.18c-.56 0-1.04.21-1.44.63-.38.4-.73 1.05-1.05 1.95l-3.57 9.48c-.72 1.92-1.41 3.43-2.07 4.53-.66 1.1-1.34 1.88-2.04 2.34-.68.48-1.45.72-2.31.72-.48 0-.87-.11-1.17-.33-.3-.22-.45-.53-.45-.93 0-.34.11-.61.33-.81.2-.18.45-.27.75-.27.26 0 .47.03.63.09.16.08.35.18.57.3.22.12.39.21.51.27.14.06.32.09.54.09.48 0 .92-.2 1.32-.6.42-.4.86-1.07 1.32-2.01.46-.92 1.01-2.23 1.65-3.93l-4.65-9.39c-.46-.88-.81-1.45-1.05-1.71-.24-.28-.55-.42-.93-.42-.04 0-.06-.06-.06-.18s.02-.18.06-.18l1.11.03c.26.02.62.03 1.08.03l1.95-.03c.3-.02.71-.03 1.23-.03.04 0 .06.06.06.18s-.02.18-.06.18c-.54 0-.95.05-1.23.15-.28.1-.42.27-.42.51 0 .16.05.33.15.51l3.81 7.83 2.22-6.36c.16-.52.24-.92.24-1.2 0-.5-.18-.86-.54-1.08-.34-.24-.88-.36-1.62-.36-.04 0-.06-.06-.06-.18s.02-.18.06-.18c.54 0 .95.01 1.23.03l1.8.03 1.14-.03c.2-.02.52-.03.96-.03zm6.919 11.97c-1.18 0-2.22-.28-3.12-.84-.9-.58-1.6-1.35-2.1-2.31-.48-.98-.72-2.04-.72-3.18 0-1.3.32-2.4.96-3.3.64-.92 1.46-1.6 2.46-2.04 1-.46 2.02-.69 3.06-.69 1.18 0 2.22.29 3.12.87.9.58 1.59 1.35 2.07 2.31.48.94.72 1.94.72 3 0 1.22-.3 2.3-.9 3.24-.58.94-1.36 1.67-2.34 2.19-.98.5-2.05.75-3.21.75zm.87-.57c1 0 1.77-.39 2.31-1.17.54-.78.81-1.95.81-3.51 0-1.3-.2-2.44-.6-3.42-.38-1-.91-1.76-1.59-2.28-.68-.54-1.44-.81-2.28-.81-.98 0-1.74.38-2.28 1.14-.52.74-.78 1.84-.78 3.3 0 1.26.19 2.41.57 3.45.38 1.02.9 1.83 1.56 2.43.68.58 1.44.87 2.28.87zm21.312-1.62c.08 0 .14.05.18.15.04.08.03.14-.03.18l-3.72 1.77c-.04.02-.09.03-.15.03-.18 0-.36-.23-.54-.69-.18-.48-.27-1.1-.27-1.86-1.48 1.66-3.02 2.49-4.62 2.49-1.02 0-1.83-.32-2.43-.96-.58-.66-.87-1.57-.87-2.73v-4.53c0-.76-.07-1.3-.21-1.62-.14-.34-.37-.51-.69-.51-.28 0-.59.08-.93.24h-.06c-.06 0-.11-.05-.15-.15-.02-.1 0-.16.06-.18l3.54-1.65.12-.03c.08 0 .16.03.24.09.08.06.12.13.12.21v6.99c0 2.26.84 3.39 2.52 3.39.56 0 1.14-.14 1.74-.42a5.4 5.4 0 001.62-1.17v-5.19c0-.76-.07-1.3-.21-1.62-.14-.34-.37-.51-.69-.51-.26 0-.58.08-.96.24h-.06c-.06 0-.1-.05-.12-.15-.02-.1 0-.16.06-.18l3.54-1.65.12-.03c.08 0 .16.03.24.09.08.06.12.13.12.21v8.25c0 .68.07 1.17.21 1.47.16.3.42.45.78.45.32 0 .81-.14 1.47-.42h.03z" fill="#FFCC7C"/></svg>