<svg width="51" height="51" fill="none" xmlns="http://www.w3.org/2000/svg"><path d="M10.329 13.165a.598.598 0 00-.809.247l-.375.703a.598.598 0 101.055.562l.375-.703a.599.599 0 00-.246-.809zM9.11 15.45a.598.598 0 00-.808.247l-3.139 5.89a.598.598 0 001.055.562l3.139-5.89a.598.598 0 00-.246-.808z" fill="#000" fill-opacity=".8"/><path d="M43.778 9.598a.598.598 0 00-.789-.29L32.854 13.92a1.41 1.41 0 00-.742 1.905l.317.671-.173.074c-1.028.214-1.744.184-2.804-.114l-2.645-.743a4.093 4.093 0 00-2.348.037l-2.552.808a4.096 4.096 0 00-1.408.776 5.626 5.626 0 00-2.245-.208l.256-.488a1.412 1.412 0 00-.515-1.859l-.012-.007-9.224-5.304a.598.598 0 00-.828.241L.313 24.295a.598.598 0 00.238.798l9.182 5.138a1.4 1.4 0 001.09.124 1.399 1.399 0 00.849-.696l.085-.161.897.903-1.335 1.853a2.156 2.156 0 00.49 3.01l.211.152a2.144 2.144 0 001.656.368l.005.05a2.144 2.144 0 00.868 1.403l.212.153a2.144 2.144 0 001.655.369c.003.016.003.033.006.05a2.142 2.142 0 00.867 1.403l.212.153a2.144 2.144 0 001.656.368 2.147 2.147 0 00.873 1.453l.212.153a2.158 2.158 0 003.009-.489l.613-.851.984.785a2.447 2.447 0 004.03-1.648 2.447 2.447 0 003.236-2.1 2.446 2.446 0 003.227-2.016 2.424 2.424 0 001.166.2 2.448 2.448 0 001.68-.848l.03-.035a2.38 2.38 0 00.569-1.827 2.462 2.462 0 00-.855-1.586l-.596-.514a6.025 6.025 0 001.166-1.06 1.4 1.4 0 001.76.556l.016-.007 10.134-4.744a.6.6 0 00.282-.808L43.778 9.598zM10.686 28.965a.364.364 0 01-.5.15L1.64 24.332l7.061-13.519 8.547 4.915a.358.358 0 01.138.477l-6.701 12.76zm3.374 5.263a.962.962 0 01-1.341.218l-.212-.153a.96.96 0 01-.218-1.34l2.7-3.749a.961.961 0 011.341-.218l.212.153a.96.96 0 01.218 1.34l-2.7 3.749zm2.741 1.974a.962.962 0 01-1.341.218l-.213-.153a.96.96 0 01-.217-1.34l2-2.776a.962.962 0 011.34-.218l.212.153a.962.962 0 01.219 1.34l-2 2.776zm2.74 1.975a.962.962 0 01-1.341.218l-.212-.153a.96.96 0 01-.218-1.341l1.426-1.98a.962.962 0 011.341-.218l.212.153a.961.961 0 01.218 1.34l-1.427 1.98zm3.593.79l-.853 1.184a.962.962 0 01-1.341.218l-.212-.153a.962.962 0 01-.218-1.34l.853-1.185a.961.961 0 011.341-.218l.212.153a.962.962 0 01.218 1.34zm13.24-9.396l.067.067-1.786-1.542c-.22-.19-.432-.386-.638-.59L30.51 24.04a.379.379 0 00-.644.269c.027.49.222.956.552 1.32l2.775 2.744c.205.203.416.398.635.587l3.36 2.903a1.191 1.191 0 01.415.854c.01.319-.103.63-.315.867l-.006.008a1.262 1.262 0 01-1.35.378 1.236 1.236 0 01-.426-.242l-3.597-3.108a.615.615 0 00-.85.031.597.597 0 00.05.857l.007.006 2.62 2.263a1.255 1.255 0 11-1.645 1.895l-2.623-2.265a.597.597 0 10-.78.904l1.808 1.562a1.255 1.255 0 11-1.64 1.899l-1.79-1.546a.615.615 0 00-.85.032.597.597 0 00.05.856l.995.86a1.255 1.255 0 01-1.642 1.898l-1.175-.94a2.157 2.157 0 00-.829-2.275l-.212-.152a2.14 2.14 0 00-1.111-.399 2.159 2.159 0 00-.844-2.219l-.212-.152a2.14 2.14 0 00-1.112-.399 2.16 2.16 0 00-.843-2.218l-.212-.153a2.139 2.139 0 00-1.034-.393 2.154 2.154 0 00-.794-2.401l-.212-.153a2.158 2.158 0 00-3.01.49l-.657.911-1.023-1.03 5.215-9.929a5.058 5.058 0 012.08-.11 3.978 3.978 0 00-.272.532l-2.105 5.759a.598.598 0 00.325.732l.167.074a3.956 3.956 0 003.824-.294A3.89 3.89 0 0023.3 22.28v-.001c.01-.104.028-.207.057-.307.09-.312.308-.887.74-1.076a.531.531 0 01.358-.022l.974.274c.417.118.798.34 1.106.645l1.486 1.468c.353.349.699.384.938.197a.597.597 0 00.053-.897l-1.636-1.618a3.77 3.77 0 00-1.623-.945l-1.197-.338a.543.543 0 00-.164-.022c-.78.003-1.446.443-1.875 1.237-.166.313-.29.647-.367.993a1.567 1.567 0 00-.03.193l-.01.105a2.7 2.7 0 01-1.2 1.992 2.787 2.787 0 01-2.343.321l1.897-5.138a2.904 2.904 0 011.802-1.642l2.553-.807a2.9 2.9 0 011.663-.027l2.645.744c1.277.358 2.176.39 3.435.12l.376-.149 4.974 10.546a4.115 4.115 0 01-1.54 1.445zm3.77-.93a.604.604 0 01-.803-.29L33.393 15.74a.678.678 0 01.02-.617.7.7 0 01.328-.293l9.204-4.189 6.416 13.685-9.217 4.315z" fill="#000" fill-opacity=".8"/></svg>