<svg width="43" height="43" fill="none" xmlns="http://www.w3.org/2000/svg"><g clip-path="url(#clip0)" fill="#000" fill-opacity=".8"><path d="M37.783 8.706L21.622.095a.803.803 0 00-.765.004L5.142 8.711a.805.805 0 00-.417.706v11.249a23.292 23.292 0 0013.96 21.317l2.181.95c.204.089.436.09.64 0l2.458-1.06a23.246 23.246 0 0014.245-21.43V9.416a.805.805 0 00-.426-.71zM36.6 20.442a21.64 21.64 0 01-13.266 19.95l-.005.003-2.14.924-1.86-.811A21.68 21.68 0 016.334 20.665V9.894L21.249 1.72l15.35 8.18v10.543z"/><path d="M15.313 20.144a.805.805 0 00-1.224 1.045l4.25 4.977a.804.804 0 001.119.101l9.898-8.053a.804.804 0 10-1.015-1.248l-9.289 7.557-3.74-4.38z"/></g><defs><clipPath id="clip0"><path fill="#fff" d="M0 0h43v43H0z"/></clipPath></defs></svg>