<svg width="22" height="22" fill="none" xmlns="http://www.w3.org/2000/svg"><g clip-path="url(#clip0)"><path d="M21.66 2.185c-.268-.328-.67-.51-1.133-.51-.252 0-.518.054-.791.158L1.113 8.942C.125 9.319-.008 9.885 0 10.189c.009.304.174.861 1.182 1.182a.622.622 0 00.018.005l3.863 1.106 2.089 5.974c.285.814.924 1.32 1.669 1.32.47 0 .93-.197 1.335-.569l2.39-2.2 3.465 2.79.001.002.033.026.01.007c.384.299.805.457 1.216.457.802 0 1.441-.594 1.627-1.513L21.95 3.709c.122-.605.02-1.146-.29-1.524zM6.355 12.272l7.453-3.807-4.64 4.93a.643.643 0 00-.157.288l-.895 3.624-1.76-5.035zm2.928 5.987a1.262 1.262 0 01-.093.077l.83-3.362 1.51 1.216-2.247 2.069zM20.686 3.453L17.635 18.52c-.03.144-.123.48-.364.48-.12 0-.27-.065-.422-.183l-3.928-3.162-.001-.002-2.337-1.881 6.71-7.13a.645.645 0 00-.762-1.016L5.494 11.264l-3.915-1.12 18.617-7.106a.945.945 0 01.33-.073c.04 0 .11.005.136.037.035.041.078.184.024.451z" fill="#fff"/></g><defs><clipPath id="clip0"><path fill="#fff" d="M0 0h22v22H0z"/></clipPath></defs></svg>